<svg xmlns="http://www.w3.org/2000/svg" width="1200" height="650" viewBox="0 0 1200 650"><defs><linearGradient id="glass"><stop stop-color="#63B4C0" stop-opacity=".34"/><stop offset=".2" stop-color="#C0E7E7" stop-opacity=".09"/><stop offset=".7" stop-color="#091C35" stop-opacity=".08"/><stop offset="1" stop-color="#83BBD2" stop-opacity=".26"/></linearGradient><linearGradient id="rim" x2=".8" y2="1"><stop stop-color="#F2F1CE"/><stop offset=".4" stop-color="#8EC5CE"/><stop offset="1" stop-color="#315670"/></linearGradient><clipPath id="inside"><path d="M38 34 H62 V42 Q78 55 78 66 V154 Q78 162 70 162 H30 Q22 162 22 154 V66 Q22 55 38 42 Z"/></clipPath><linearGradient id="jade" x2="1" y2=".45"><stop stop-color="#087D84"/><stop offset=".22" stop-color="#32D8B3"/><stop offset=".7" stop-color="#32D8B3"/><stop offset="1" stop-color="#087D84"/></linearGradient><linearGradient id="coral" x2="1" y2=".45"><stop stop-color="#B03D63"/><stop offset=".22" stop-color="#FF857F"/><stop offset=".7" stop-color="#FF857F"/><stop offset="1" stop-color="#B03D63"/></linearGradient><linearGradient id="bg" x2="0" y2="1"><stop stop-color="#102B37"/><stop offset="1" stop-color="#111C30"/></linearGradient></defs><rect width="1200" height="650" fill="url(#bg)"/><text x="64" y="73" fill="#EFE6CD" font-family="Helvetica,Arial,sans-serif" font-size="28" letter-spacing="5">BOTTLE HARMONY</text><text x="64" y="105" fill="#96ACA9" font-family="Helvetica,Arial,sans-serif" font-size="13" letter-spacing="3">GLASS / LIQUID / MOVEMENT</text><g transform="translate(48 177) scale(1.65)"><g transform="rotate(0 50 96)"><path d="M35 28 Q35 25 40 25 H60 Q65 25 65 28 V40 C65 45 82 51 82 66 V154 Q82 167 69 168 H31 Q18 167 18 154 V66 C18 51 35 45 35 40 Z" fill="url(#glass)" stroke="#82B1C4" stroke-width="1.3"/><g clip-path="url(#inside)"></g><path d="M31 62 Q27 68 27 77 V147 Q27 155 33 157" fill="none" stroke="#E9FFFF" stroke-width="2.8" stroke-opacity=".25" stroke-linecap="round"/><path d="M73 80 V142" fill="none" stroke="#DEF6F7" stroke-width="1.4" stroke-opacity=".11" stroke-linecap="round"/><path d="M40 42 Q38 49 30 55" fill="none" stroke="#F0FFFF" stroke-width="1.8" stroke-opacity=".24"/><path d="M27 162 Q50 169 73 162" fill="none" stroke="#9FDEDC" stroke-width="1.7" stroke-opacity=".48"/><ellipse cx="50" cy="28" rx="17" ry="5.8" fill="#183447" stroke="url(#rim)" stroke-width="2.5"/><ellipse cx="50" cy="28" rx="11.5" ry="3.3" fill="#081C2C" stroke="#72ACBC" stroke-width=".7"/><path d="M34 27 Q50 19 66 27" fill="none" stroke="#EAF4E0" stroke-width="1.1" stroke-opacity=".75"/></g></g><text x="130" y="520" text-anchor="middle" fill="#B7C8C2" font-family="Helvetica,Arial,sans-serif" font-size="12" letter-spacing="2">EMPTY</text><g transform="translate(273 177) scale(1.65)"><g transform="rotate(0 50 96)"><path d="M35 28 Q35 25 40 25 H60 Q65 25 65 28 V40 C65 45 82 51 82 66 V154 Q82 167 69 168 H31 Q18 167 18 154 V66 C18 51 35 45 35 40 Z" fill="url(#glass)" stroke="#82B1C4" stroke-width="1.3"/><g clip-path="url(#inside)"><path d="M77.99998813205295,65.99994659423828 L78,66 L78,154 L74,162 L26,162 L22,154 L22,66 L22.000011867947048,65.99994659423828 Z" fill="url(#coral)" stroke="#FFF" stroke-opacity=".075" stroke-width=".5"/><path d="M78,89.85721588134766 L78,154 L74,162 L26,162 L22,154 L22,89.85721588134766 Z" fill="url(#jade)" stroke="#FFF" stroke-opacity=".075" stroke-width=".5"/><path d="M78,113.71448516845703 L78,154 L74,162 L26,162 L22,154 L22,113.71448516845703 Z" fill="url(#coral)" stroke="#FFF" stroke-opacity=".075" stroke-width=".5"/><path d="M78,137.5717544555664 L78,154 L74,162 L26,162 L22,154 L22,137.5717544555664 Z" fill="url(#jade)" stroke="#FFF" stroke-opacity=".075" stroke-width=".5"/><ellipse cx="50" cy="66" rx="27.5" ry="3.5" fill="#FFF" opacity=".4"/></g><path d="M31 62 Q27 68 27 77 V147 Q27 155 33 157" fill="none" stroke="#E9FFFF" stroke-width="2.8" stroke-opacity=".25" stroke-linecap="round"/><path d="M73 80 V142" fill="none" stroke="#DEF6F7" stroke-width="1.4" stroke-opacity=".11" stroke-linecap="round"/><path d="M40 42 Q38 49 30 55" fill="none" stroke="#F0FFFF" stroke-width="1.8" stroke-opacity=".24"/><path d="M27 162 Q50 169 73 162" fill="none" stroke="#9FDEDC" stroke-width="1.7" stroke-opacity=".48"/><ellipse cx="50" cy="28" rx="17" ry="5.8" fill="#183447" stroke="url(#rim)" stroke-width="2.5"/><ellipse cx="50" cy="28" rx="11.5" ry="3.3" fill="#081C2C" stroke="#72ACBC" stroke-width=".7"/><path d="M34 27 Q50 19 66 27" fill="none" stroke="#EAF4E0" stroke-width="1.1" stroke-opacity=".75"/></g></g><text x="355" y="520" text-anchor="middle" fill="#B7C8C2" font-family="Helvetica,Arial,sans-serif" font-size="12" letter-spacing="2">MIXED</text><g transform="translate(498 177) scale(1.65)"><g transform="rotate(0 50 96)"><path d="M35 28 Q35 25 40 25 H60 Q65 25 65 28 V40 C65 45 82 51 82 66 V154 Q82 167 69 168 H31 Q18 167 18 154 V66 C18 51 35 45 35 40 Z" fill="url(#glass)" stroke="#B8F7E2" stroke-width="2.1"/><g clip-path="url(#inside)"><path d="M77.99998813205295,65.99994659423828 L78,66 L78,154 L74,162 L26,162 L22,154 L22,66 L22.000011867947048,65.99994659423828 Z" fill="url(#coral)" stroke="#FFF" stroke-opacity=".075" stroke-width=".5"/><path d="M78,89.85721588134766 L78,154 L74,162 L26,162 L22,154 L22,89.85721588134766 Z" fill="url(#jade)" stroke="#FFF" stroke-opacity=".075" stroke-width=".5"/><path d="M78,113.71448516845703 L78,154 L74,162 L26,162 L22,154 L22,113.71448516845703 Z" fill="url(#coral)" stroke="#FFF" stroke-opacity=".075" stroke-width=".5"/><path d="M78,137.5717544555664 L78,154 L74,162 L26,162 L22,154 L22,137.5717544555664 Z" fill="url(#jade)" stroke="#FFF" stroke-opacity=".075" stroke-width=".5"/><ellipse cx="50" cy="66" rx="27.5" ry="3.5" fill="#FFF" opacity=".4"/></g><path d="M31 62 Q27 68 27 77 V147 Q27 155 33 157" fill="none" stroke="#E9FFFF" stroke-width="2.8" stroke-opacity=".25" stroke-linecap="round"/><path d="M73 80 V142" fill="none" stroke="#DEF6F7" stroke-width="1.4" stroke-opacity=".11" stroke-linecap="round"/><path d="M40 42 Q38 49 30 55" fill="none" stroke="#F0FFFF" stroke-width="1.8" stroke-opacity=".24"/><path d="M27 162 Q50 169 73 162" fill="none" stroke="#9FDEDC" stroke-width="1.7" stroke-opacity=".48"/><ellipse cx="50" cy="28" rx="17" ry="5.8" fill="#183447" stroke="url(#rim)" stroke-width="2.5"/><ellipse cx="50" cy="28" rx="11.5" ry="3.3" fill="#081C2C" stroke="#72ACBC" stroke-width=".7"/><path d="M34 27 Q50 19 66 27" fill="none" stroke="#EAF4E0" stroke-width="1.1" stroke-opacity=".75"/></g></g><text x="580" y="520" text-anchor="middle" fill="#B7C8C2" font-family="Helvetica,Arial,sans-serif" font-size="12" letter-spacing="2">SELECTED</text><g transform="translate(723 177) scale(1.65)"><g transform="rotate(0 50 96)"><path d="M35 28 Q35 25 40 25 H60 Q65 25 65 28 V40 C65 45 82 51 82 66 V154 Q82 167 69 168 H31 Q18 167 18 154 V66 C18 51 35 45 35 40 Z" fill="url(#glass)" stroke="#E8CB8C" stroke-width="1.3"/><g clip-path="url(#inside)"><path d="M77.99998813205295,65.99994659423828 L78,66 L78,154 L74,162 L26,162 L22,154 L22,66 L22.000011867947048,65.99994659423828 Z" fill="url(#jade)" stroke="#FFF" stroke-opacity=".075" stroke-width=".5"/><ellipse cx="50" cy="66" rx="27.5" ry="3.5" fill="#FFF" opacity=".4"/></g><path d="M31 62 Q27 68 27 77 V147 Q27 155 33 157" fill="none" stroke="#E9FFFF" stroke-width="2.8" stroke-opacity=".25" stroke-linecap="round"/><path d="M73 80 V142" fill="none" stroke="#DEF6F7" stroke-width="1.4" stroke-opacity=".11" stroke-linecap="round"/><path d="M40 42 Q38 49 30 55" fill="none" stroke="#F0FFFF" stroke-width="1.8" stroke-opacity=".24"/><path d="M27 162 Q50 169 73 162" fill="none" stroke="#9FDEDC" stroke-width="1.7" stroke-opacity=".48"/><ellipse cx="50" cy="28" rx="17" ry="5.8" fill="#183447" stroke="url(#rim)" stroke-width="2.5"/><ellipse cx="50" cy="28" rx="11.5" ry="3.3" fill="#081C2C" stroke="#72ACBC" stroke-width=".7"/><path d="M34 27 Q50 19 66 27" fill="none" stroke="#EAF4E0" stroke-width="1.1" stroke-opacity=".75"/></g></g><text x="805" y="520" text-anchor="middle" fill="#B7C8C2" font-family="Helvetica,Arial,sans-serif" font-size="12" letter-spacing="2">COMPLETE</text><g transform="translate(948 177) scale(1.65)"><g transform="rotate(55 50 96)"><path d="M35 28 Q35 25 40 25 H60 Q65 25 65 28 V40 C65 45 82 51 82 66 V154 Q82 167 69 168 H31 Q18 167 18 154 V66 C18 51 35 45 35 40 Z" fill="url(#glass)" stroke="#82B1C4" stroke-width="1.3"/><g clip-path="url(#inside)"><path d="M74.10582126592207,54.97052278491651 L76,57 L78.00000000000001,66 L78,154 L74,162 L26.000000000000004,161.99999999999997 L21.999999999999993,154 L21.999999999999996,129.38534756550402 Z" fill="url(#jade)" stroke="#FFF" stroke-opacity=".075" stroke-width=".5"/><path d="M78.00000000000001,73.72649207077775 L78,154 L74,162 L26.000000000000004,161.99999999999997 L21.999999999999993,154 L22,153.7027804483362 Z" fill="url(#coral)" stroke="#FFF" stroke-opacity=".075" stroke-width=".5"/><path d="M78,99.85850786879115 L78,154 L74,162 L34.488058774128206,162 Z" fill="url(#jade)" stroke="#FFF" stroke-opacity=".075" stroke-width=".5"/></g><path d="M31 62 Q27 68 27 77 V147 Q27 155 33 157" fill="none" stroke="#E9FFFF" stroke-width="2.8" stroke-opacity=".25" stroke-linecap="round"/><path d="M73 80 V142" fill="none" stroke="#DEF6F7" stroke-width="1.4" stroke-opacity=".11" stroke-linecap="round"/><path d="M40 42 Q38 49 30 55" fill="none" stroke="#F0FFFF" stroke-width="1.8" stroke-opacity=".24"/><path d="M27 162 Q50 169 73 162" fill="none" stroke="#9FDEDC" stroke-width="1.7" stroke-opacity=".48"/><ellipse cx="50" cy="28" rx="17" ry="5.8" fill="#183447" stroke="url(#rim)" stroke-width="2.5"/><ellipse cx="50" cy="28" rx="11.5" ry="3.3" fill="#081C2C" stroke="#72ACBC" stroke-width=".7"/><path d="M34 27 Q50 19 66 27" fill="none" stroke="#EAF4E0" stroke-width="1.1" stroke-opacity=".75"/></g></g><text x="1030" y="520" text-anchor="middle" fill="#B7C8C2" font-family="Helvetica,Arial,sans-serif" font-size="12" letter-spacing="2">POUR / 55°</text><circle cx="72" cy="594" r="8" fill="#32D8B3"/><text x="91" y="599" fill="#96ACA9" font-family="Helvetica,Arial,sans-serif" font-size="12">JADE</text><circle cx="190" cy="594" r="8" fill="#FF857F"/><text x="209" y="599" fill="#96ACA9" font-family="Helvetica,Arial,sans-serif" font-size="12">CORAL</text><text x="1136" y="599" text-anchor="end" fill="#748D92" font-family="Helvetica,Arial,sans-serif" font-size="12">Original vector artwork · shared with the mobile demo</text></svg>
